<?xml version="1.0" encoding="utf-8"?>
<svg viewBox="0 0 50 50" xmlns="http://www.w3.org/2000/svg">
  <path style="stroke-linecap: round; stroke-linejoin: round; stroke-width: 2px; stroke-dashoffset: -5px; stroke: rgb(255, 255, 255);" d="M 13.095 19.442 L 13.374 14.409 C 13.397 10.84 19.29 10.795 19.582 14.356 L 19.265 17.304 L 19.514 15.237 C 19.196 11.72 25.117 10.901 26.01 15.138 L 25.869 17.257 L 25.949 15.986 C 26.331 12.101 32.567 13.251 32.306 15.986 L 32.352 17.465 C 32.209 13.457 38.474 14.915 37.641 17.971 C 37.641 17.971 37.384 20.041 37.141 21.052 C 36.157 25.147 32.494 32.413 32.494 32.413 C 30.668 34.308 13.555 36.76 10.781 32.414 L 8.939 24.541 C 8.792 24.367 8.801 23.514 7.814 22.621 C 5.559 20.581 8.662 14.872 11.583 18.101 L 13.095 19.442 Z"/>
</svg>