<?xml version="1.0" encoding="utf-8"?>
<svg viewBox="0 0 50 50" xmlns="http://www.w3.org/2000/svg">
  <path style="stroke-linecap: round; stroke-linejoin: round; stroke-width: 2px; stroke-dashoffset: -5px; stroke: rgb(255, 255, 255);" d="M 13.967 21.162 L 11.928 7.654 C 11.951 4.085 18.173 4.219 18.465 7.78 L 20.701 20.621 L 20.361 6.056 C 20.043 2.539 26.37 1.819 27.263 6.056 L 27.603 20.01 L 28.904 9.078 C 29.286 5.193 35.522 6.343 35.261 9.078 L 33.96 19.639 L 35.107 13.635 C 36.224 10.323 41.9 12.064 41.102 14.772 L 39.172 23.422 L 34.302 41.083 C 35.951 43.667 15.363 45.43 12.589 41.084 L 10.43 31.029 C 10.619 30.715 8.152 28.212 5.839 26.384 C 3.255 24.343 4.938 21.008 7.865 21.25 L 13.998 22.92 L 13.967 21.162 Z"/>
</svg>