<?xml version="1.0" encoding="utf-8"?>
<svg viewBox="0 0 19 25.5" xmlns="http://www.w3.org/2000/svg" xmlns:bx="https://boxy-svg.com">
  <desc>Mouse cursor for Graphite</desc>
  <title>Mouse Cursor</title>
  <path style="stroke: rgb(255, 255, 255); paint-order: fill; stroke-miterlimit: 10;" d="M 1.16 1.504 L 1.418 14.428 L 4.113 11.504 L 6.247 16.002 L 9.171 14.749 L 6.926 10.361 L 10.888 10.096 L 1.16 1.504 Z" transform="matrix(0.999722, 0.023584, -0.023584, 0.999722, 0.035793, -0.026939)" bx:origin="0 0"/>
  <g transform="matrix(0.905327, 0, 0, 0.905327, 8.230259, -17.024479)" style="visibility: hidden;">
    <polygon fill="#FFFFFF" points="-18.451 15.629 -18.451 -0.371 -6.851 11.229 -13.651 11.229 -14.051 11.329"/>
    <polygon fill="#FFFFFF" points="-9.351 16.329 -12.951 17.829 -17.651 6.729 -13.951 5.229"/>
    <rect x="12.501" y="13.601" transform="matrix(0.922047, -0.387078, 0.387078, 0.922047, -32.411285, 1.319765)" width="2" height="8"/>
    <polygon points="-17.451 2.029 -17.451 13.229 -14.451 10.329 -14.051 10.229 -9.251 10.229"/>
  </g>
</svg>