<?xml version="1.0" encoding="utf-8"?>
<svg viewBox="0 0 40 50" xmlns="http://www.w3.org/2000/svg">
  <path style="stroke-linecap: round; stroke-linejoin: round; stroke-dashoffset: -5px; stroke: rgb(255, 255, 255); stroke-width: 3px;" d="M 12.282 21.873 L 12.479 5.769 C 13.24 2.446 19.619 3.293 19.288 5.827 L 19.288 21.264 L 19.288 15.042 C 18.659 13.332 25.093 12.692 26.311 15.042 L 26.311 20.653 L 26.311 17.056 C 26.456 15.539 32.791 15.519 32.65 17.056 L 32.65 20.282 L 32.835 18.926 C 33.424 17.887 36.756 17.88 37.85 19.906 L 37.484 23.838 L 33.37 41.726 C 35.019 44.31 13.297 46.577 10.523 42.231 L 7.215 31.026 C 7.312 30.735 6.926 29.056 5.198 26.851 C -0.957 19.754 6.528 19.111 7.2 20.119 L 12.448 24.454 L 12.282 21.873 Z"/>
</svg>