<?xml version="1.0" encoding="utf-8"?>
<svg viewBox="0 0 210 240" xmlns="http://www.w3.org/2000/svg" xmlns:bx="https://boxy-svg.com">
  <path d="M 185.588 95.122 C 185.588 118.04 177.022 138.956 162.918 154.845 L 193.604 191.19 C 209.103 212.185 187.157 222.379 175.098 206.718 L 144.612 170.611 C 130.507 179.789 113.671 185.122 95.588 185.122 C 45.882 185.122 5.588 144.828 5.588 95.122 C 5.588 45.416 45.882 5.122 95.588 5.122 C 145.294 5.122 185.588 45.416 185.588 95.122 Z M 95.588 25.122 C 56.928 25.122 25.588 56.462 25.588 95.122 C 25.588 133.782 56.928 165.122 95.588 165.122 C 109.88 165.122 123.171 160.839 134.248 153.487 L 146.303 143.371 C 158.253 130.814 165.588 113.825 165.588 95.122 C 165.588 56.462 134.248 25.122 95.588 25.122 Z" style="stroke: rgb(255, 255, 255); stroke-width: 8px;"/>
  <path d="M 86.213 57.622 H 104.962 V 85.748 H 133.088 V 104.497 H 104.962 V 132.622 H 86.213 V 104.497 H 58.088 V 85.748 H 86.213 Z" style="stroke-width: 8px; stroke: rgb(255, 255, 255);" bx:shape="cross 58.088 57.622 75 75 18.749 18.749 0.5 1@115a9b7a"/>
</svg>