<?xml version="1.0" encoding="utf-8"?>
<svg viewBox="0 0 230 230" xmlns="http://www.w3.org/2000/svg">
  <path d="M 187.903 97.295 C 187.903 120.213 179.337 141.129 165.233 157.018 L 195.919 193.363 C 211.418 214.358 189.472 224.552 177.413 208.891 L 146.927 172.784 C 132.822 181.962 115.986 187.295 97.903 187.295 C 48.197 187.295 7.903 147.001 7.903 97.295 C 7.903 47.589 48.197 7.295 97.903 7.295 C 147.609 7.295 187.903 47.589 187.903 97.295 Z M 97.903 27.295 C 59.243 27.295 27.903 58.635 27.903 97.295 C 27.903 135.955 59.243 167.295 97.903 167.295 C 112.195 167.295 125.486 163.012 136.563 155.66 L 148.618 145.544 C 160.568 132.987 167.903 115.998 167.903 97.295 C 167.903 58.635 136.563 27.295 97.903 27.295 Z" style="stroke: rgb(255, 255, 255); stroke-width: 8px;"/>
  <path d="M 97.903 87.92 L 135.403 87.92 L 135.403 106.669 L 97.903 106.669 L 60.403 106.669 L 60.403 87.92 L 97.903 87.92 Z" style="stroke-width: 8px; stroke: rgb(255, 255, 255);"/>
</svg>